# xmcd
#
# Track frame offsets:
#	150
#	14014
#	31515
#	43550
#	56948
#	71595
#	84687
#	93913
#	118853
#	136580
#	156743
#	170580
#	188095
#	202566
#	227513
#	236726
#	249821
#
# Disc length: 3566 seconds
#
# Revision: 0
# Processed by: cddbd v1.5.2PL0 Copyright (c) Steve Scherf et al.
# Submitted via: audiograbber 1.83.01
#
DISCID=da0dec11
DTITLE=Terry Fator - Lucky Guy (2007 Remix)
DYEAR=2007
DGENRE=
TTITLE0=I Remember The Days
TTITLE1=I Do
TTITLE2=Candi's Got A Radio
TTITLE3=Can You Fix A Broken Heart
TTITLE4=Lucky Guy
TTITLE5='96 Neon
TTITLE6=Christmastime
TTITLE7=(How Do I Say) Goodbye
TTITLE8=I Can't Believe it's Over
TTITLE9=Monkey Song
TTITLE10=I Remember The Days (Karaoke Track)
TTITLE11=I Do (Karaoke Track)
TTITLE12=Lucky Guy (Karaoke Track)
TTITLE13=(How Do I Say) Goodbye (Karaoke Track)
TTITLE14=Christmastime (Karaoke Track)
TTITLE15='96 Neon (Karaoke Track)
TTITLE16=I Can't Believe it's Over (Karaoke Track)
EXTD=
EXTT0=
EXTT1=
EXTT2=
EXTT3=
EXTT4=
EXTT5=
EXTT6=
EXTT7=
EXTT8=
EXTT9=
EXTT10=
EXTT11=
EXTT12=
EXTT13=
EXTT14=
EXTT15=
EXTT16=
PLAYORDER=
